<?xml version="1.0" encoding="utf-8"?>
<!-- Generator: Adobe Illustrator 24.1.3, SVG Export Plug-In . SVG Version: 6.00 Build 0)  -->
<svg version="1.1" id="Layer_1" xmlns="http://www.w3.org/2000/svg" xmlns:xlink="http://www.w3.org/1999/xlink" x="0px" y="0px"
	 viewBox="0 0 101.5 54.9" style="enable-background:new 0 0 101.5 54.9;" xml:space="preserve">
<style type="text/css">
	.st0{fill:#D8D8D8;}
</style>
<g>
	<g>
		<g>
			<path class="st0" d="M86.1,30.1c0.2,0.5,0.4,1,0.6,1.5c0.3-0.1,0.6-0.3,1-0.4c0.8-0.3,1.7-0.6,2.5-1c0.8-0.3,1.6-0.4,2.4-0.2
				c1.1,0.2,2,0.8,2.7,1.7c0.5,0.7,0.8,1.5,1.1,2.4c0.4,1.2,0.5,2.5,0.6,3.8c0,0.2,0.1,0.3,0.1,0.5c0,0.1,0,0.1,0.1,0.2
				c1.3-0.4,2.6-0.6,3.9-0.7c-0.1,0.1-0.1,0.2-0.1,0.3s-0.1,0.1-0.2,0.1c-2.4,1.3-4.7,2.7-7,4.1c-0.1,0.1-0.2,0.1-0.3,0.2
				c0-0.1-0.1-0.1-0.1-0.2c0-1-0.3-1.9-0.4-2.9c-0.1-0.8-0.3-1.6-0.6-2.4c-0.1-0.3-0.2-0.6-0.4-1c-0.5-1-1.5-1.3-2.6-1
				c-0.4,0.1-0.8,0.3-1.2,0.5c-0.4,0.2-0.8,0.5-1.1,0.7c-0.3,0.1-0.3,0.3-0.4,0.6c-0.1,0.8-0.3,1.6-0.4,2.4
				c-0.8,3.9-2.5,7.3-5.1,10.3c-0.5,0.6-1.1,1.1-1.7,1.7c-0.1,0.1-0.1,0.1-0.1,0.1c-0.3,0.3-0.3,0.4-0.1,0.7
				c0.1,0.1,0.2,0.3,0.3,0.4c0.3,0.4,0.5,0.8,0.8,1.1c0.2,0.3,0.3,0.7,0.3,1c0,0.1,0,0.1-0.1,0.2c-0.1,0-0.1,0-0.2,0
				c-0.1,0-0.1-0.1-0.1-0.1c-1.9-1.6-3.8-3.2-5.7-4.8c-0.1-0.1-0.1-0.1-0.3-0.3c0.1-0.1,0.2-0.1,0.3-0.3c0.7-0.6,1.5-1.3,2.2-2
				c1-0.9,1.8-1.8,2.5-2.9c1.7-2.4,2.6-5.1,2.6-8c0-0.4,0.1-0.8,0.5-1c1.5-1.1,2.7-2.6,3.4-4.3C85.7,30.9,85.9,30.5,86.1,30.1z"/>
			<path class="st0" d="M72.4,30.3c-0.7-0.8-1.4-1.7-2.1-2.5c0.1-0.1,0.3-0.3,0.4-0.4c2.3-2,4.6-4.1,7-6.1c0.4-0.3,0.7-0.6,1.1-1
				c0.6-0.4,1.2-0.8,2-0.8c0.3,0,0.5,0,0.8,0c0.8,0.1,1.3-0.1,1.9-0.6c0.2-0.2,0.4-0.4,0.6-0.6c0.1-0.1,0.3-0.3,0.4-0.5
				c0.1,0.2,0.1,0.3,0.1,0.4c0.1,1,0.3,2,0.3,3.1c0.1,1.1,0.3,2.3,0.4,3.4c0.2,1.9,0.1,3.8-0.4,5.6c-0.9,2.9-2.7,5-5.4,6.3
				c-1.4,0.7-2.9,1.1-4.4,1.4C74.6,38,74.4,38,74.2,38s-0.4-0.1-0.4-0.3c0-0.1,0-0.1-0.1-0.1c-0.5-1.7-1.1-3.4-1.6-5.2
				C72,32.3,72,32.2,71.9,32c0.1,0,0.2,0,0.3,0.1c0.6,0.2,1.3,0.4,2,0.5c1.1,0.2,2.2,0.2,3.3-0.1c1.7-0.4,2.7-1.4,3.3-3
				c0.4-1.1,0.5-2.3,0.3-3.5c-0.1-0.8-0.3-1.7-0.6-2.5c-1,0.8-1.9,1.5-2.8,2.3c-1,0.8-1.9,1.5-2.7,2.3
				C74.3,28.8,73.4,29.6,72.4,30.3z"/>
			<path class="st0" d="M36.5,24.4c-0.3,0-0.6,0-0.8,0c0-0.1-0.1-0.3-0.1-0.3c0-0.6,0-1.2,0-1.8c0-0.4,0.1-0.4,0.4-0.4
				c0.8,0,1.5,0,2.2,0c2,0,3.9,0,5.9,0c0.6,0,0.6,0,0.6,0.6c0,0.5,0,1,0,1.5c0,0.1,0,0.3,0,0.4c-0.3,0-0.6,0-0.9,0
				c0-0.1-0.1-0.2-0.1-0.3c0-0.1,0-0.3-0.1-0.4c-0.1-0.5-0.3-0.6-0.8-0.7c-0.4,0-0.8,0-1.1,0c-0.3,0-0.4,0.1-0.5,0.4
				c-0.1,0.2-0.1,0.4-0.1,0.7c0,1.3-0.1,2.7-0.1,4c0,3.8,0,7.7,0.1,11.6c0,0.3,0,0.7,0.1,1c0.1,0.3,0.2,0.4,0.5,0.4
				c0.2,0,0.4,0,0.6,0c0.1,0.3,0.1,0.6,0,0.9c-0.3,0.1-4.2,0.1-4.6,0c0-0.3,0-0.6,0-0.9c0.2,0,0.4,0,0.6,0c0.4,0,0.5-0.1,0.6-0.5
				c0.1-0.3,0.1-0.4,0.1-0.7c0.1-5.3,0.1-10.6,0-16c0-0.3-0.1-0.5-0.1-0.7c-0.1-0.2-0.3-0.3-0.5-0.3c-0.4,0-0.9,0-1.3,0
				c-0.3,0-0.4,0.1-0.4,0.3c-0.1,0.2-0.2,0.4-0.2,0.6C36.5,24.2,36.5,24.3,36.5,24.4z"/>
			<path class="st0" d="M79.5,6.5c0.3-0.4,0.6-0.8,1.1-1c0.3-0.2,0.7-0.3,1.1-0.2c0.4,0.1,0.7,0.2,0.9,0.5c0.3,0.3,0.4,0.6,0.6,1
				c0.5,0.8,0.3,1.8-0.4,2.4c-0.2,0.1-0.3,0.3-0.2,0.5c0.2,0.7,0.4,1.4,0.8,2.1c0.1,0.1,0.1,0.3,0.1,0.4c-0.1,0-0.2,0-0.3,0
				c-1.1-0.1-2.1,0-3.1,0.3c-0.4,0.1-0.8,0.3-1.3,0.5c-0.3,0.1-0.4,0.3-0.5,0.6c0,0.1,0,0.1-0.1,0.2s-0.1,0.1-0.2,0.1
				c-0.1,0-0.1-0.1-0.2-0.1c-0.1-0.1-0.1-0.2-0.1-0.3c-0.1-0.5-0.3-1-0.4-1.5c0-0.1-0.1-0.2-0.1-0.3c-0.1-0.3-0.2-0.3-0.4-0.3
				c-0.2,0.1-0.3,0.1-0.5,0.1c-0.9,0.2-1.8-0.4-2-1.3c-0.1-0.6,0.1-1,0.5-1.3c0.3-0.2,0.4-0.4,0.7-0.6c0.1-0.1,0.1-0.2,0.2-0.3
				c0.4-0.8,1-1.3,1.8-1.7c0.6-0.2,1.1-0.2,1.7,0C79.4,6.4,79.4,6.5,79.5,6.5C79.5,6.5,79.5,6.5,79.5,6.5z"/>
			<path class="st0" d="M86.1,27.6C86,26,85.9,24.5,85.7,23c0.1,0,0.3,0.1,0.3,0.1c0.7,0.2,1.4,0.4,2.1,0.5c0.6,0.1,1.2,0.1,1.9-0.1
				c1-0.2,1.9-0.8,2.4-1.6c0.3-0.4,0.4-0.8,0.6-1.3c0.1-0.1,0.1-0.3,0.2-0.4c0.1-0.1,0.2-0.3,0.4-0.3c1.1,0,2.1,0,3.2,0
				c0.1,0,0.1,0,0.2,0.1c-0.1,0.3-0.1,0.6-0.1,0.8c-0.7,2.9-2.3,5-5,6.1c-1.3,0.6-2.7,0.8-4.1,0.7C87.1,27.6,86.6,27.6,86.1,27.6z"
				/>
			<path class="st0" d="M43.8,33.1c0-1,0.1-1.8,0.3-2.6c0.2-0.9,0.6-1.7,1.3-2.2c1.5-1.3,3.4-1.1,4.7,0.1c0.7,0.6,1.1,1.5,1.2,2.4
				c0.2,1.3,0.2,2.6,0.1,3.8c-0.2,1.1-0.6,2.2-1.6,3.1c-1.1,1-3,1.1-4.2,0.1c-1.1-0.8-1.6-2-1.7-3.4C43.8,34,43.8,33.5,43.8,33.1z
				 M49.1,32.9c-0.1-1-0.1-2-0.1-3c0-0.2-0.1-0.3-0.1-0.5c-0.2-0.7-0.7-1.1-1.4-1.1c-0.7,0-1.2,0.4-1.3,1.1
				c-0.1,0.4-0.2,0.8-0.2,1.1c0,1.5,0,3.1,0,4.6c0,0.4,0.1,1,0.2,1.4c0.2,0.6,0.8,1,1.4,0.9c0.6-0.1,1.1-0.4,1.2-1.1
				c0.1-0.2,0.1-0.4,0.1-0.7C49,34.8,49,33.9,49.1,32.9z"/>
		</g>
		<g>
			<path class="st0" d="M59.6,40.7c-0.1,0.1-0.1,0.1-0.1,0.2c-0.4,0.9-1.1,1.4-2,1.5c-1.2,0.2-2.4,0-3.3-0.9
				c-0.5-0.4-0.9-1.1-1.1-1.7c-0.3-0.9-0.4-1.9-0.5-2.9c-0.2-2.6-0.2-5.2-0.1-7.8c0.1-1.3,0.1-2.6,0.4-3.8c0.2-0.8,0.4-1.5,1-2.2
				c0.6-0.8,1.5-1.3,2.5-1.5c1.1-0.2,2.2-0.1,3.3,0.4c0.7,0.3,1.3,0.9,1.5,1.7c0.2,0.6,0.2,1.2-0.1,1.9c-0.3,0.6-0.7,0.7-1.2,0.7
				c-0.5,0-0.9-0.3-1.1-0.7c-0.3-0.6-0.3-1.1,0-1.7c0.1-0.2,0.2-0.3,0.3-0.4c0.1-0.1,0.2-0.1,0.3-0.3c-0.2-0.1-0.3-0.3-0.5-0.4
				c-1-0.3-1.9-0.4-2.8,0.2c-0.7,0.4-1.1,1.1-1.2,1.9c-0.1,0.5-0.1,1-0.2,1.5c-0.2,3.8-0.1,7.5-0.1,11.2c0,0.7,0.1,1.4,0.3,2.1
				c0.3,0.8,0.6,1.3,1.4,1.7c0.9,0.4,1.7,0.1,2.2-0.7c0.3-0.6,0.5-1.1,0.7-1.7c0.4-1.7,0.3-3.4,0.3-5.1c0-0.3-0.1-0.5-0.2-0.8
				c-0.1-0.3-0.3-0.4-0.6-0.5c-0.3-0.1-0.4-0.6-0.3-0.8c0.1-0.1,0.1-0.1,0.2-0.1c0.1,0,0.2,0,0.3,0c1,0,2.1,0,3.1,0
				c0.5,0,0.6,0.2,0.5,0.6c0,0.1-0.1,0.3-0.3,0.3c-0.4,0-0.5,0.2-0.6,0.6c-0.1,0.6-0.2,1.1-0.2,1.7c-0.1,1.3-0.1,2.7-0.1,4
				c0,0.6,0.1,1.1,0.2,1.7c0.1,0.4,0.3,0.7,0.7,0.8c0.1,0,0.2,0.1,0.2,0.3c0,0.1,0,0.1,0,0.1c0.1,0.5-0.1,0.6-0.6,0.6
				c-0.1,0-0.3,0-0.4,0c-0.8-0.1-1.3-0.4-1.7-1.1C59.9,41.1,59.8,40.9,59.6,40.7z"/>
			<path class="st0" d="M92.5,1.1c0.1,0,0.1,0.1,0.2,0.1c1.5,1.1,3,2.2,4.3,3.6c0.7,0.7,1.4,1.5,1.9,2.4c0.5,0.8,0.9,1.6,1.1,2.5
				c0.2,1,0.1,1.9-0.3,2.7c0,0.1-0.1,0.1-0.1,0.3c0.4,0,0.8,0,1.2,0c0.1,1.3-0.3,2.4-1.2,3.3c0.3,0.1,0.4,0.1,0.6,0.1s0.4,0,0.6,0
				c0.2,0,0.4,0,0.7,0c0,0.3-0.1,0.6-0.1,1c-1.5,0-3.1,0-4.6,0c0.1,0.2,0.3,0.3,0.3,0.4c0.1,0.2,0.3,0.3,0.3,0.5
				c0.1,0.4,0,0.8-0.3,1.1c-0.4,0.3-0.8,0.4-1.2,0.5c-0.5,0.1-1-0.1-1.3-0.5c-0.3-0.4-0.4-0.9-0.2-1.4c0.1-0.1,0.1-0.3,0.1-0.4
				c0-0.1,0-0.2,0.1-0.4c-1.5,0-3.1,0-4.6,0c0-0.4,0-0.6,0-1c0.8,0,1.7,0,2.5,0c-0.3-0.4-0.5-0.7-0.6-1c-0.2-0.3-0.3-0.7-0.4-1.1
				c-0.1-0.4-0.1-0.8-0.1-1.2c1.4,0,2.8,0,4.2,0c0.1-0.6,0.1-1.1,0.1-1.7c-0.1-1.1-0.6-2.3-1.1-3.3c-0.8-1.7-1.9-3.2-3.1-4.6
				c-0.1-0.1-0.2-0.2-0.3-0.3c0.1,0.1,0.1,0.1,0.2,0.1c1.3,1,2.5,2.1,3.5,3.4C95.6,7,96.2,7.9,96.6,9s0.4,2.2,0.1,3.3
				c0,0.1,0,0.1-0.1,0.2c0.4,0,0.8,0,1.3,0c0-0.1,0.1-0.3,0.1-0.4c0.1-1.1-0.1-2.1-0.6-3.1c-0.5-1.3-1.3-2.6-2.2-3.6
				c-1.1-1.3-2.3-2.6-3.6-3.8c-0.2-0.1-0.3-0.3-0.4-0.4c0.1,0,0.1,0,0.1,0.1c1.7,1,3.3,2.1,4.6,3.5c0.8,0.8,1.5,1.7,2,2.7
				c0.6,1.1,0.8,2.3,0.7,3.6c-0.1,0.4-0.2,0.9-0.3,1.3c0,0.1-0.1,0.1-0.1,0.3c0.3,0,0.4,0,0.6,0c0.3-0.7,0.4-1.4,0.3-2.1
				c-0.1-0.9-0.3-1.7-0.8-2.6c-0.6-1.1-1.3-2.2-2.2-3.1c-1.1-1.3-2.3-2.4-3.6-3.4C92.7,1.3,92.6,1.2,92.5,1.1L92.5,1.1z"/>
			<path class="st0" d="M19.4,37.3c0,0.3,0,0.6,0,0.8c-0.3,0.1-3.8,0.1-4.2,0c0-0.3,0-0.6,0-0.9c0.2,0,0.3-0.1,0.5-0.1
				s0.4-0.1,0.4-0.3c0.1-0.1,0.1-0.3,0.1-0.4c0-0.4,0.1-0.7,0.1-1.1c0-1.7,0-3.3,0-5c0-0.5-0.1-1-0.4-1.3c-0.7-0.8-1.9-0.7-2.5,0.2
				c-0.2,0.3-0.3,0.7-0.3,1.1c0,1.9,0,3.8,0.1,5.6c0,0.2,0.1,0.4,0.1,0.6c0.1,0.3,0.3,0.6,0.6,0.6c0.1,0,0.1,0.1,0.2,0.1
				c0,0.1,0.1,0.1,0.1,0.2c0.1,0.7,0,0.8-0.6,0.8c-1,0-2,0-3,0c-0.2,0-0.3,0-0.5-0.1c0-0.3,0-0.6,0-0.9c0.1,0,0.3,0,0.3-0.1
				c0.3,0.1,0.5-0.1,0.6-0.5c0-0.3,0-0.5,0.1-0.7c0-0.4,0.1-0.9,0.1-1.3c0-2.3,0.1-4.5,0.1-6.8c0-1.5-0.1-3-0.1-4.5
				c0-0.2-0.1-0.4-0.1-0.6c-0.1-0.3-0.3-0.4-0.6-0.4c-0.1,0-0.3,0-0.4-0.1c0-0.3,0-0.6,0-0.9c0.1,0,0.3-0.1,0.3-0.1
				c0.8,0,1.7,0,2.5,0c0.4,0,0.4,0,0.4,0.4c0,1.6-0.1,3.2-0.1,4.8c0,0.6,0,1.1,0,1.7c0.1-0.1,0.2-0.1,0.3-0.1
				c0.4-0.3,0.8-0.5,1.3-0.6c1-0.1,1.9,0.1,2.6,0.7c0.7,0.6,1.1,1.3,1.2,2.1c0,0.3,0,0.4,0,0.7c0,1.5,0,3.1,0,4.5
				c0,0.3,0.1,0.7,0.1,1c0.1,0.4,0.3,0.8,0.8,0.8C19.3,37.3,19.3,37.3,19.4,37.3z"/>
			<path class="st0" d="M7.2,23.3C7,23,6.8,22.9,6.6,22.9c-1-0.4-2-0.4-2.9,0.3c-0.4,0.3-0.8,0.7-1,1.3c-0.1,0.4-0.2,0.7-0.2,1.1
				c-0.1,1.1-0.2,2.2-0.2,3.4c0,2.2,0,4.5,0,6.8c0,1.2,0.1,2.4,0.2,3.6c0.1,1,0.6,1.8,1.5,2.2c1,0.4,1.9,0.4,2.9-0.2
				c0.4-0.3,0.6-0.6,0.9-1C7.9,40,8,40,8.1,39.8C8.2,39.9,8.4,40,8.6,40c-0.1,0.4-0.2,0.8-0.4,1.1c-0.3,0.5-0.8,1-1.4,1.1
				c-2,0.6-4.5,0.1-5.7-1.9c-0.4-0.6-0.6-1.3-0.7-2c-0.1-0.8-0.2-1.7-0.3-2.6c-0.1-2-0.1-4-0.1-6c0-1,0.1-2,0.1-3.1
				c0.1-1.1,0.4-2.2,1-3.1c0.7-1,1.6-1.7,2.9-2c1-0.2,2-0.2,3.1,0.2c1,0.4,1.7,1.1,1.9,2.2c0.1,0.6,0,1.1-0.3,1.5
				c-0.4,0.5-1.1,0.8-1.7,0.4c-0.2-0.1-0.4-0.3-0.4-0.5c-0.2-0.6-0.3-1.2,0-1.8c0.1-0.1,0.2-0.3,0.3-0.4C6.9,23.4,7,23.4,7.2,23.3z"
				/>
			<path class="st0" d="M29,28.5c-0.3,0-0.6,0-0.9,0c-0.3,0-0.4-0.1-0.4-0.4c0-0.4,0.1-0.5,0.4-0.5c0.3,0,0.6,0,1,0
				c0-0.3,0-0.5,0-0.8c0-0.8,0-1.6,0.1-2.4c0-0.7,0.2-1.4,0.5-2.1c0.3-0.6,0.6-1,1.2-1.2c0.9-0.3,1.8-0.3,2.6,0.1
				c0.6,0.3,1,0.8,1.1,1.5c0.1,0.3,0.1,0.8,0.2,1.2c0,0.3-0.1,0.6-0.2,0.9c-0.3,0.5-0.7,0.7-1.3,0.6c-0.6-0.1-1-0.4-1.1-0.9
				c-0.1-0.4-0.1-0.9,0-1.3c0.1-0.3,0.3-0.5,0.5-0.6c0.1-0.1,0.3-0.2,0.4-0.3c-0.1-0.3-0.2-0.4-0.4-0.5c-0.5-0.3-1.1-0.1-1.3,0.4
				c-0.2,0.3-0.3,0.6-0.3,0.8c-0.1,0.7-0.1,1.4-0.1,2s0,1.3,0,1.9c0,0.1,0,0.3,0,0.4c0.2,0,0.3,0.1,0.4,0.1c0.3,0,0.6,0,0.8,0
				c0.3,0,0.4,0.1,0.4,0.4c0,0.1,0,0.1,0,0.2c0,0.2-0.1,0.3-0.3,0.3c-0.3,0-0.6,0-0.9,0c-0.1,0-0.3,0-0.4,0c0,0.1,0,0.3,0,0.4
				c0,1.9,0,3.8,0,5.7c0,0.6,0.1,1.1,0.1,1.7c0,0.1,0.1,0.2,0.1,0.3c0.1,0.3,0.3,0.5,0.6,0.5c0.2,0,0.4,0,0.6,0.1c0,0.3,0,0.6,0,0.9
				c-0.3,0.1-4,0.1-4.5,0c0-0.3,0-0.6,0-0.8c0.1,0,0.1-0.1,0.3-0.1c0.4,0,0.6-0.2,0.6-0.5c0.1-0.4,0.3-0.8,0.3-1.3
				c-0.1-1.7,0-3.3,0-5c0-0.5,0-1.1,0-1.6C29.1,28.8,29.1,28.7,29,28.5z"/>
			<path class="st0" d="M71.1,32.9c0,0.9-0.1,1.8-0.3,2.7c-0.4,1.3-1.1,2.2-2.4,2.6c-1.3,0.4-2.5,0.1-3.4-0.8
				c-0.8-0.7-1.1-1.6-1.3-2.6c-0.2-1.3-0.2-2.5,0-3.8c0.1-1.1,0.5-2,1.3-2.8c1.3-1.2,3.4-1.1,4.7,0.1c0.8,0.8,1.2,1.6,1.3,2.7
				C71,31.7,71.1,32.3,71.1,32.9z M65.7,32.9c0.1,0.9,0.1,1.8,0.1,2.7c0,0.3,0.1,0.6,0.1,0.8c0.1,0.6,0.7,1.1,1.3,1.1
				c0.6,0,1.1-0.4,1.3-1.1c0.1-0.3,0.1-0.6,0.1-0.8c0-1.7,0-3.4,0-5.2c0-0.3-0.1-0.7-0.1-1c-0.1-0.6-0.6-1-1.3-1.1
				c-0.7,0-1.3,0.4-1.4,1c-0.1,0.3-0.1,0.4-0.1,0.7C65.8,31,65.8,31.9,65.7,32.9z"/>
			<path class="st0" d="M27.1,35.8C27,36,27,36.3,26.9,36.4c-0.3,0.6-0.6,1-1.1,1.4c-0.1,0.1-0.3,0.3-0.6,0.3
				c-1.7,0.7-3.3,0.1-4.3-1.6c-0.5-0.8-0.7-1.8-0.8-2.7c0-0.7,0-1.4,0-2.1c0-0.7,0.2-1.3,0.4-2c0.4-1.1,1.2-1.9,2.4-2.2
				c1.3-0.3,2.4-0.1,3.4,0.8c0.3,0.3,0.5,0.6,0.6,1.1c0.1,0.4,0.2,0.8,0.2,1.2c0,0.5-0.2,0.9-0.6,1.1c-0.4,0.3-0.8,0.4-1.2,0.6
				c-0.9,0.4-1.8,0.8-2.7,1.2c-0.2,0.1-0.3,0.2-0.3,0.3c0.1,0.7,0.1,1.5,0.1,2.2c0.1,0.6,0.4,1.1,1,1.3c0.3,0.1,0.6,0.1,1,0
				c0.9-0.2,1.6-0.7,2-1.5C26.6,35.7,26.6,35.6,27.1,35.8z M22.3,32.6c0.1-0.1,0.2-0.1,0.3-0.1c0.8-0.3,1.5-0.6,2.3-0.9
				c0.4-0.2,0.6-0.5,0.6-0.9c0.1-0.5,0-1-0.1-1.5c-0.2-0.4-0.5-0.8-1-0.8c-0.1,0-0.3,0-0.4-0.1c-0.6-0.1-1.4,0.6-1.5,1.3
				c-0.1,0.4-0.1,0.9-0.1,1.4C22.3,31.5,22.3,32,22.3,32.6z"/>
			<path class="st0" d="M84.1,15.8c0,1.7-1.3,3-3,3c-1.7,0-3-1.3-3-3s1.3-3,2.9-3C82.8,12.9,84.1,14.2,84.1,15.8z"/>
			<path class="st0" d="M91.2,0c0.4,0.1,0.9,0.2,1.3,0.3c1.3,0.3,2.5,0.8,3.6,1.5c2.5,1.5,3.9,3.6,4.3,6.4c0.2,1.1,0.2,2.2,0,3.4
				c0-0.1,0-0.2,0-0.3c0.1-2.4-0.8-4.5-2.4-6.4c-1.1-1.3-2.4-2.4-3.8-3.2c-0.9-0.6-1.9-1-2.8-1.5C91.4,0.2,91.4,0.1,91.2,0
				C91.2,0.1,91.2,0.1,91.2,0z"/>
		</g>
		<path class="st0" d="M92.5,1.1c-0.1,0-0.1,0-0.1-0.1c-0.1,0-0.1-0.1-0.1-0.1C92.4,1,92.4,1,92.5,1.1L92.5,1.1z"/>
	</g>
</g>
</svg>
