<?xml version="1.0" encoding="utf-8"?>
<!-- Generator: Adobe Illustrator 24.1.1, SVG Export Plug-In . SVG Version: 6.00 Build 0)  -->
<svg version="1.1" id="Layer_1" xmlns="http://www.w3.org/2000/svg" xmlns:xlink="http://www.w3.org/1999/xlink" x="0px" y="0px"
	 viewBox="0 0 16 16" style="enable-background:new 0 0 16 16;" xml:space="preserve">
<style type="text/css">
	.st0{fill:#EF4023;}
</style>
<g>
	<path d="M8.03,8.77C8.09,8.93,8.15,9.06,8.2,9.2C8.3,9.16,8.4,9.12,8.49,9.09C8.73,9,8.96,8.9,9.2,8.82
		c0.23-0.08,0.46-0.1,0.7-0.06c0.33,0.05,0.59,0.22,0.79,0.49c0.16,0.21,0.24,0.44,0.32,0.69c0.11,0.35,0.16,0.72,0.19,1.09
		c0,0.05,0.01,0.1,0.02,0.14c0,0.01,0.01,0.03,0.01,0.05c0.36-0.1,0.73-0.18,1.12-0.2c-0.01,0.03-0.02,0.05-0.03,0.07
		c-0.02,0.02-0.04,0.03-0.06,0.04c-0.68,0.39-1.35,0.78-2.03,1.18c-0.03,0.02-0.06,0.03-0.1,0.05c-0.01-0.03-0.01-0.04-0.01-0.06
		c0-0.28-0.07-0.56-0.12-0.83c-0.04-0.23-0.1-0.46-0.16-0.69c-0.02-0.09-0.06-0.19-0.11-0.27c-0.16-0.27-0.42-0.38-0.73-0.3
		c-0.12,0.03-0.24,0.09-0.35,0.15c-0.12,0.06-0.22,0.14-0.34,0.2c-0.07,0.04-0.1,0.09-0.11,0.16c-0.04,0.23-0.07,0.46-0.12,0.69
		c-0.22,1.12-0.71,2.11-1.46,2.96c-0.15,0.17-0.32,0.33-0.48,0.49c-0.01,0.01-0.03,0.03-0.05,0.04C6,14.97,6,15.01,6.05,15.1
		c0.03,0.04,0.06,0.08,0.08,0.12c0.07,0.11,0.15,0.22,0.21,0.33c0.05,0.09,0.07,0.19,0.1,0.29c0,0.01-0.01,0.04-0.02,0.05
		c-0.01,0.01-0.04,0-0.06-0.01c-0.02-0.01-0.03-0.02-0.04-0.03c-0.55-0.46-1.09-0.92-1.64-1.38c-0.02-0.02-0.05-0.04-0.08-0.08
		c0.03-0.02,0.06-0.04,0.09-0.07c0.21-0.19,0.42-0.38,0.63-0.57c0.27-0.25,0.51-0.52,0.72-0.82c0.48-0.7,0.73-1.47,0.73-2.32
		c0-0.13,0.04-0.22,0.14-0.29C7.36,10,7.69,9.59,7.9,9.08C7.94,8.98,7.98,8.89,8.03,8.77z"/>
	<path d="M4.11,8.83c-0.2-0.24-0.4-0.48-0.6-0.72c0.04-0.04,0.08-0.07,0.11-0.1c0.67-0.59,1.33-1.17,2-1.76
		c0.1-0.09,0.2-0.19,0.31-0.28C6.1,5.84,6.29,5.74,6.5,5.73c0.07,0,0.15,0,0.22,0.01C6.93,5.77,7.11,5.7,7.26,5.55
		c0.06-0.06,0.11-0.12,0.16-0.18c0.04-0.04,0.07-0.09,0.12-0.15c0.01,0.05,0.02,0.07,0.02,0.1c0.03,0.29,0.07,0.59,0.1,0.88
		C7.7,6.54,7.74,6.87,7.78,7.2c0.06,0.55,0.04,1.09-0.13,1.62C7.4,9.66,6.88,10.26,6.1,10.64c-0.4,0.2-0.82,0.31-1.26,0.4
		c-0.06,0.01-0.12,0.02-0.18,0.03c-0.07,0.01-0.11-0.02-0.14-0.09c0-0.01-0.01-0.02-0.01-0.03c-0.16-0.5-0.31-0.99-0.47-1.49
		C4.04,9.42,4.04,9.38,4.02,9.33c0.03,0,0.05,0,0.07,0.01c0.19,0.05,0.38,0.1,0.58,0.14C5,9.54,5.32,9.53,5.64,9.46
		C6.11,9.34,6.43,9.05,6.6,8.6c0.12-0.33,0.15-0.67,0.1-1.02C6.66,7.34,6.6,7.1,6.52,6.86c-0.28,0.22-0.54,0.44-0.8,0.66
		c-0.27,0.22-0.53,0.44-0.8,0.66C4.65,8.38,4.39,8.6,4.11,8.83z"/>
	<path d="M6.17,1.97c0.07-0.13,0.18-0.22,0.31-0.29c0.1-0.05,0.2-0.07,0.3-0.05c0.1,0.01,0.19,0.06,0.25,0.15
		C7.1,1.87,7.17,1.96,7.22,2.06C7.37,2.3,7.32,2.57,7.1,2.74C7.04,2.78,7.03,2.82,7.05,2.89c0.06,0.21,0.13,0.41,0.23,0.6
		C7.3,3.52,7.3,3.56,7.31,3.6c-0.04,0-0.06,0.01-0.08,0.01c-0.3-0.02-0.61,0-0.9,0.09C6.21,3.73,6.09,3.79,5.96,3.84
		C5.89,3.88,5.84,3.93,5.81,4.01C5.81,4.02,5.81,4.04,5.79,4.06C5.78,4.07,5.76,4.09,5.74,4.09c-0.02,0-0.04-0.02-0.05-0.04
		C5.67,4.03,5.67,4,5.66,3.97C5.63,3.83,5.59,3.68,5.56,3.54C5.55,3.51,5.54,3.49,5.53,3.47C5.5,3.4,5.47,3.38,5.4,3.41
		C5.36,3.42,5.31,3.44,5.26,3.45C5,3.51,4.74,3.35,4.69,3.08C4.66,2.93,4.72,2.8,4.83,2.69c0.07-0.06,0.14-0.12,0.2-0.18
		c0.03-0.03,0.04-0.06,0.06-0.09C5.2,2.19,5.37,2.03,5.61,1.95c0.16-0.05,0.31-0.05,0.47,0C6.1,1.95,6.13,1.96,6.15,1.97
		C6.15,1.97,6.16,1.97,6.17,1.97z"/>
	<path d="M8.05,8.03C8.01,7.59,7.97,7.16,7.93,6.71C7.97,6.72,8,6.73,8.02,6.73c0.2,0.05,0.4,0.1,0.61,0.14
		C8.81,6.9,8.99,6.89,9.16,6.86c0.29-0.06,0.53-0.22,0.69-0.47c0.07-0.12,0.13-0.25,0.19-0.37c0.02-0.04,0.03-0.08,0.05-0.11
		c0.02-0.04,0.06-0.06,0.11-0.06c0.31,0,0.61,0,0.92,0c0.01,0,0.03,0,0.05,0.01c-0.02,0.08-0.03,0.16-0.05,0.24
		c-0.2,0.83-0.67,1.43-1.46,1.77C9.29,8.02,8.89,8.08,8.47,8.06C8.34,8.06,8.2,8.04,8.05,8.03z"/>
	<path class="st0" d="M9.9,0.41c0.02,0.01,0.04,0.01,0.06,0.02c0.44,0.31,0.86,0.64,1.23,1.03c0.21,0.21,0.4,0.44,0.56,0.69
		c0.14,0.22,0.25,0.46,0.3,0.72c0.05,0.27,0.03,0.54-0.09,0.8c-0.01,0.02-0.02,0.04-0.03,0.07c0.12,0,0.23,0,0.34,0
		c0.04,0.38-0.09,0.69-0.36,0.96c0.07,0.03,0.13,0.01,0.19,0.02c0.06,0,0.12,0,0.18,0c0.06,0,0.12,0,0.2,0
		C12.48,4.81,12.47,4.9,12.47,5c-0.44,0-0.88,0-1.33,0c0.04,0.06,0.07,0.09,0.1,0.13c0.03,0.05,0.07,0.1,0.09,0.15
		c0.04,0.12,0.01,0.24-0.1,0.31C11.12,5.68,11,5.73,10.87,5.75c-0.15,0.02-0.28-0.02-0.38-0.15c-0.09-0.12-0.11-0.26-0.05-0.4
		c0.01-0.04,0.03-0.07,0.04-0.11c0.01-0.03,0.01-0.06,0.01-0.11c-0.44,0-0.88,0-1.32,0c0-0.1,0-0.19,0-0.29c0.24,0,0.47,0,0.72,0
		C9.82,4.59,9.75,4.5,9.7,4.4C9.65,4.3,9.62,4.19,9.59,4.09C9.56,3.98,9.55,3.86,9.57,3.74c0.41,0,0.81,0,1.22,0
		c0.04-0.17,0.04-0.33,0.02-0.49c-0.04-0.34-0.16-0.65-0.31-0.96c-0.24-0.48-0.56-0.91-0.91-1.32c-0.02-0.03-0.05-0.06-0.07-0.1
		C9.53,0.88,9.56,0.9,9.58,0.91C9.95,1.2,10.3,1.52,10.6,1.89c0.2,0.26,0.37,0.53,0.47,0.84c0.1,0.31,0.12,0.62,0.04,0.93
		c0,0.02-0.01,0.03-0.02,0.06c0.12,0,0.24,0,0.38,0c0.01-0.04,0.01-0.08,0.02-0.11c0.02-0.31-0.04-0.61-0.16-0.9
		c-0.15-0.38-0.37-0.73-0.63-1.05c-0.31-0.39-0.65-0.75-1.03-1.08C9.62,0.54,9.58,0.5,9.53,0.45c0.01,0,0.02,0.01,0.03,0.01
		c0.48,0.29,0.93,0.6,1.33,1c0.23,0.24,0.44,0.5,0.59,0.79c0.16,0.32,0.25,0.67,0.19,1.03c-0.02,0.13-0.06,0.25-0.09,0.37
		c0,0.02-0.01,0.04-0.02,0.07c0.07,0,0.13,0,0.19,0c0.08-0.19,0.12-0.4,0.1-0.61c-0.02-0.26-0.1-0.5-0.21-0.74
		c-0.16-0.33-0.38-0.63-0.63-0.91c-0.31-0.36-0.67-0.68-1.04-0.98C9.95,0.47,9.92,0.44,9.9,0.41L9.9,0.41z"/>
	<path class="st0" d="M7.48,4.66c0,0.48-0.38,0.87-0.86,0.87c-0.47,0-0.86-0.39-0.86-0.87c0-0.48,0.38-0.86,0.85-0.86
		C7.1,3.8,7.48,4.18,7.48,4.66z"/>
	<path class="st0" d="M9.53,0.1c0.13,0.03,0.25,0.05,0.38,0.08c0.37,0.09,0.72,0.22,1.05,0.42c0.71,0.43,1.13,1.05,1.25,1.86
		c0.05,0.32,0.05,0.65,0,0.98c0-0.03,0-0.06,0-0.09c0.02-0.71-0.22-1.31-0.67-1.85c-0.31-0.37-0.69-0.67-1.11-0.93
		c-0.26-0.16-0.53-0.3-0.82-0.42C9.59,0.15,9.56,0.13,9.53,0.12C9.53,0.11,9.53,0.1,9.53,0.1z"/>
	<path d="M9.9,0.41c-0.01,0-0.03-0.01-0.04-0.01C9.85,0.39,9.84,0.38,9.84,0.36C9.86,0.38,9.88,0.4,9.9,0.41
		C9.9,0.41,9.9,0.41,9.9,0.41z"/>
</g>
</svg>
